<?xml version="1.0" encoding="utf-8"?>
<!-- Generator: Adobe Illustrator 24.0.2, SVG Export Plug-In . SVG Version: 6.00 Build 0)  -->
<svg version="1.1" id="Laag_1" xmlns="http://www.w3.org/2000/svg" xmlns:xlink="http://www.w3.org/1999/xlink" x="0px" y="0px"
	 viewBox="0 0 46 31" style="enable-background:new 0 0 46 31;" xml:space="preserve">
<path id="Icon_ionic-ios-arrow-round-forward" d="M25.81,9.85c-0.46,0.36-0.47,0.93-0.01,1.29l5.56,4.28H10.19
	C9.53,15.42,9,15.83,9,16.34c0,0.5,0.53,0.91,1.19,0.91h21.17l-5.56,4.29c-0.46,0.36-0.45,0.94,0.01,1.29
	c0.47,0.35,1.22,0.35,1.68-0.01c0,0,0,0,0,0l7.54-5.84c0.1-0.08,0.19-0.18,0.25-0.29c0.06-0.11,0.09-0.23,0.09-0.35
	c0-0.24-0.12-0.47-0.34-0.64l-7.54-5.84C27.03,9.51,26.29,9.5,25.81,9.85C25.82,9.84,25.81,9.84,25.81,9.85z"/>
</svg>
